<svg width="80" height="43" viewBox="0 0 80 43" fill="none" xmlns="http://www.w3.org/2000/svg">
<path d="M74.2179 32.8579C74.2638 33.07 74.6167 33.1819 74.8107 33.1769L74.7875 33.6023C74.6922 33.6717 73.9537 33.5524 73.772 33.552C73.6735 33.5518 73.5781 33.5985 73.4761 33.5997C73.1406 33.6034 72.8009 33.602 72.4759 33.62C72.1158 33.0811 72.8019 33.2545 73.0046 33.0035C73.1474 32.8266 73.0645 31.9484 73.0686 31.6718C73.0711 31.4999 73.1726 30.8095 73.0736 30.7409C72.9403 30.6924 72.7861 30.7197 72.6886 30.8283C72.0145 31.5985 71.1507 33.5835 70.0347 33.6843C69.7834 33.707 69.5384 33.649 69.2901 33.6394L69.2565 33.3698C69.5221 33.1635 69.7807 33.1017 70.0116 32.8156C70.4942 32.218 70.9053 31.4054 71.396 30.7681C71.4784 30.6612 71.8738 30.2752 71.8824 30.1921C71.8939 30.0815 71.7143 29.8546 71.6437 29.7534C71.3119 29.2773 70.6033 28.3862 70.119 28.0993C69.944 27.9957 69.5766 27.9116 69.5266 27.7663C69.3969 27.3891 70.0184 27.5271 70.2448 27.5079C70.4282 27.4923 70.8296 27.361 70.971 27.463C71.0453 27.5167 71.2813 28.0742 71.3639 28.2135C71.6492 28.6944 72.3081 29.615 72.6881 30.0127C72.8096 30.1399 72.9973 30.2503 73.0903 30.0519C72.9817 29.6605 73.1907 28.3527 73.0236 28.084C72.9267 27.9282 72.6376 27.9132 72.4819 27.8408L72.4944 27.4635L74.6544 27.4298C74.8033 27.4516 74.7523 27.7685 74.7069 27.8472C74.667 27.9164 74.2179 27.986 74.2179 28.1216V30.1092C74.2179 30.2262 74.4597 30.1554 74.5373 30.0887C74.7603 29.8973 75.4276 28.9871 75.6121 28.7058C75.8645 28.3207 76.0122 27.8952 76.1568 27.4622C76.3325 27.3355 77.4693 27.5565 77.7468 27.5694C77.9313 27.9484 77.5603 27.8889 77.3078 27.9832C76.9126 28.1307 76.538 28.6088 76.2584 28.9263C76.1414 29.0591 75.3649 29.9952 75.3646 30.0676C75.5137 30.2919 75.7294 30.47 75.8927 30.6835C76.2624 31.1668 77.2227 32.8183 77.6567 33.0297C77.869 33.1332 78.325 33.0669 78.148 33.4291C78.0869 33.5543 77.6055 33.6819 77.4659 33.6839C76.868 33.6923 76.4888 33.536 76.1121 33.087C75.5493 32.4161 75.1175 31.5177 74.5581 30.8278L74.3058 30.6967L74.2179 30.7435V32.8579Z" fill="#003285"/>
<path d="M64.4032 31.7796C64.502 31.8031 64.4732 31.7612 64.5005 31.7262C65.3557 30.6322 66.1874 29.5181 67.0473 28.4274C67.2397 27.8735 66.4944 27.9569 66.4191 27.8492C66.3869 27.744 66.3695 27.533 66.4597 27.4623L68.7822 27.4847C69.0499 28.1227 68.2859 27.7527 68.2252 28.2468C68.3291 29.6905 68.0935 31.3107 68.2251 32.7331C68.2732 33.2534 68.737 33.0793 68.8701 33.236C68.9834 33.7914 68.731 33.6029 68.3778 33.596C67.7559 33.5838 67.131 33.5917 66.5123 33.6345C66.4019 33.5977 66.4241 33.3255 66.4808 33.2342C66.5834 33.176 67.0799 33.0862 67.0799 32.9425V29.3692L66.9112 29.4761L64.4354 32.5516C64.3745 32.7896 64.3443 33.0246 64.6072 33.119C64.9106 33.2279 65.1666 33.127 65.0008 33.6218L62.6461 33.6371C62.5479 33.6064 62.5518 33.2765 62.5951 33.215C62.6962 33.0711 63.1874 33.272 63.2522 32.8118C63.1599 31.3707 63.3881 29.751 63.2583 28.331C63.2071 27.7696 62.6834 27.9735 62.5947 27.8497C62.553 27.7916 62.5592 27.5461 62.6161 27.4847C62.6708 27.4466 63.2774 27.462 63.4064 27.4642C63.6137 27.4677 63.8833 27.5127 64.0848 27.5123C64.3584 27.5118 64.6785 27.4219 64.9698 27.4645C65.2281 27.9666 64.8148 27.8314 64.5764 27.9557C64.5462 27.9714 64.4032 28.1097 64.4032 28.1217V31.7796Z" fill="#003285"/>
<path d="M35.3207 28.0582C35.26 28.0953 35.262 28.1425 35.2548 28.2041C35.1094 29.4371 35.3853 30.9326 35.2148 32.1811C35.3005 32.7706 35.1051 33.1434 35.8759 33.2145C35.9066 33.2573 35.9055 33.4727 35.8939 33.5344C35.8599 33.7147 35.7108 33.5994 35.5773 33.5959C35.1281 33.5843 34.655 33.5564 34.214 33.5541C34.0058 33.553 33.7141 33.6241 33.4918 33.6233C33.367 33.6049 33.3532 33.297 33.4071 33.2156C33.5046 33.0686 34.0627 33.2225 34.1118 32.6908C34.2404 31.2989 34.0147 29.7076 34.1059 28.2947C34.0744 27.9309 33.6691 27.9239 33.3932 27.841C33.3278 27.302 33.538 27.4625 33.8744 27.4681C35.6315 27.4974 37.3532 27.4806 39.1015 27.4659C39.1728 27.4653 39.2467 27.4224 39.3165 27.4223C39.4585 27.4221 39.6076 27.4971 39.7609 27.466L39.7551 27.8412C39.5419 27.9194 39.1711 27.9332 39.1258 28.2085C39.0124 28.8979 39.2321 29.823 39.0894 30.5321L39.1324 32.8488C39.2008 33.1562 39.7006 33.0801 39.7826 33.2167L39.8033 33.5982C39.1458 33.6149 38.4833 33.5757 37.8257 33.5962C37.6652 33.6013 37.4997 33.6904 37.3384 33.6195C37.2379 33.5608 37.2693 33.2801 37.3158 33.2154C37.3752 33.1328 37.827 33.1994 37.9439 32.9104C38.021 31.3185 37.9621 29.7056 37.9694 28.1076C37.9386 28.1014 37.8854 28.0582 37.8699 28.0582H35.3207Z" fill="#003285"/>
<path d="M45.7513 33.598L45.7569 33.2231C46.0855 33.1341 46.3953 33.1423 46.4331 32.7331C46.5643 31.3134 46.3329 29.692 46.4287 28.2509C46.3587 27.8107 45.7678 28.0503 45.7473 27.6988C45.7353 27.4948 45.8528 27.4797 46.0255 27.4642C46.6173 27.4112 47.2685 27.4997 47.8542 27.4997C48.4495 27.4996 49.1335 27.429 49.7256 27.4645C49.8447 27.4716 50.1572 27.4858 50.1701 27.6141L50.2144 28.9184L49.7738 29.0329C49.5887 28.7435 49.5657 28.3077 49.2225 28.1344C49.1556 28.1006 48.8482 28.0159 48.7892 28.0159H47.642L47.5783 28.0794V30.2149H48.7892C48.8313 30.2149 49.0101 30.051 49.0407 30.0001C49.1984 29.7379 49.0464 29.3848 49.5566 29.5779L49.5328 31.3356C49.5329 31.4744 49.2759 31.4698 49.1921 31.4206C49.1068 31.3705 49.1016 31.0451 48.9916 30.9014C48.9515 30.849 48.7923 30.7224 48.7467 30.7224H47.5783V32.9002C47.9071 33.1028 48.5683 33.0862 48.9587 33.0478C49.592 32.9856 49.8464 32.5562 50.004 31.9947L50.3836 32.0957L50.4262 32.1812C50.3322 32.641 50.4191 33.1729 50.2337 33.598H45.7513Z" fill="#003285"/>
<path d="M42.2886 31.1876C42.2279 31.2247 42.2299 31.2719 42.2227 31.3334C42.1973 31.5489 42.1932 32.7625 42.2439 32.9236C42.331 33.2007 42.7999 33.1852 43.0344 33.2362C43.0927 33.3315 43.1424 33.5127 43.0545 33.5986L40.4014 33.5945C40.2341 33.0189 40.8681 33.2813 41.0312 33.0231C41.0839 32.9396 41.1146 32.5987 41.1222 32.4794C41.1769 31.6229 41.0878 30.6686 41.0806 29.8119C41.0768 29.3575 41.1579 28.8297 41.1145 28.3806C41.0702 27.9219 40.8416 27.9277 40.4463 27.8408L40.4589 27.5058C40.5069 27.4365 41.3302 27.4656 41.483 27.4643C43.0426 27.4518 45.5239 27.1506 45.3258 29.4742C45.2382 30.5004 44.2182 31.1876 43.2233 31.1876H42.2886ZM42.2248 28.0794V30.6378C42.8216 30.6887 43.7686 30.7232 44.0429 30.0581C44.1927 29.6949 44.1746 28.9899 44.0016 28.6368C43.7023 28.0259 42.9121 27.8906 42.2965 28.0238L42.2248 28.0794Z" fill="#003285"/>
<path d="M56.2411 29.2378L55.8691 29.2786C55.628 28.1841 54.9228 27.7494 53.8237 28.0368C51.7261 28.5851 51.899 32.8127 53.9917 33.1138C54.7633 33.2248 55.3926 32.9851 55.7578 32.2877C55.8175 32.1737 55.8973 31.8174 56.0041 31.8273C56.0258 31.8293 56.1896 31.9112 56.2037 31.9271C56.3204 32.0582 56.186 33.0995 56.1197 33.3245C56.0206 33.4247 55.0506 33.6523 54.8599 33.6776C53.0103 33.9222 51.2773 33.0754 51.1054 31.0811C50.898 28.674 52.3737 27.2219 54.7795 27.382C55.0144 27.3976 56.1215 27.5735 56.1965 27.7901L56.2411 29.2378Z" fill="#003285"/>
<path d="M58.0939 28.0159C57.8167 28.0721 57.6108 28.381 57.5185 28.6274C57.3816 28.993 57.4996 29.3967 56.974 29.2368L57.0115 27.6152L57.1252 27.4747L61.9532 27.4732C62.0379 27.5014 62.0581 27.6196 62.0672 27.698C62.0946 27.9341 62.1335 28.8772 62.1044 29.0913C62.0992 29.1297 62.084 29.2143 62.0571 29.2335C61.9488 29.2444 61.6966 29.3564 61.6488 29.2139C61.6005 29.07 61.5921 28.8273 61.5358 28.6498C61.4646 28.4248 61.2632 28.0159 60.983 28.0159H60.1333L60.0696 28.0794V32.8579C60.0696 33.0756 60.582 33.1828 60.7438 33.223C60.745 33.3276 60.7958 33.5963 60.6798 33.6342L58.3122 33.6438C57.9901 33.0371 58.659 33.2292 58.8611 33.0084C58.9282 32.9351 58.9546 32.7507 58.9641 32.6457C59.0744 31.4253 58.9455 29.9139 58.931 28.6714C58.9299 28.5835 59.0383 28.0159 58.9012 28.0159C58.6635 28.0487 58.3144 27.9713 58.0939 28.0159Z" fill="#003285"/>
<path d="M17.6034 28.2696C17.7135 28.2371 17.656 28.0595 17.5809 27.996C17.3604 27.8097 16.9044 28.0113 17.0297 27.466C17.3342 27.4711 17.6402 27.4603 17.9451 27.4644C18.0684 27.4661 18.1855 27.5111 18.3257 27.5111C18.4881 27.5111 19.3984 27.4123 19.4518 27.466C19.4499 27.5529 19.4635 27.7074 19.413 27.7775C19.3323 27.8896 18.5801 27.9228 18.8356 28.2696H19.6428C19.7015 28.2696 20.1297 28.3888 20.2155 28.4185C21.3461 28.811 21.7749 29.8103 21.5709 30.9498C21.3334 32.2757 19.958 32.6845 18.7717 32.6676C18.7499 32.8388 18.81 32.9635 18.9404 33.0707C19.202 33.2858 19.5897 33.1214 19.4943 33.5981C18.6558 33.5807 17.8228 33.5321 16.9872 33.5982L16.9854 33.2451C16.9974 33.1946 17.881 33.064 17.6475 32.6636C17.6145 32.607 17.0052 32.6759 16.8794 32.6692C15.2707 32.5827 14.3987 31.1982 14.8657 29.689C15.0734 29.0177 15.9969 28.2696 16.7112 28.2696C16.9002 28.2696 17.4743 28.3078 17.6034 28.2696ZM17.6672 32.0967V28.8405C17.6672 28.6818 17.215 28.7753 17.1126 28.796C15.4736 29.1274 15.6717 31.9745 17.0547 32.1565C17.1606 32.1705 17.6377 32.1917 17.6672 32.0967ZM18.7718 28.7771V32.0967C18.9601 32.2331 19.3034 32.1488 19.517 32.0772C20.0369 31.9029 20.3148 31.4263 20.3746 30.901C20.5068 29.74 20.1095 28.7031 18.7718 28.7771Z" fill="#003285"/>
<path d="M28.8838 30.9338C28.5246 30.9246 28.2366 30.8879 27.9643 31.1604C27.3657 31.7594 27.1284 32.9691 26.2719 33.4298C25.8277 33.6687 25.4898 33.6297 25.0022 33.5921C24.8961 33.5612 24.9081 33.2366 24.9723 33.1936C25.3214 33.1772 25.5784 32.9987 25.7814 32.7301C26.2201 32.1496 26.4284 31.3177 27.0142 30.8276C27.0388 30.7182 26.6139 30.6455 26.5175 30.6037C25.6959 30.2478 25.4286 29.3533 25.7317 28.5366C26.3079 26.9842 28.6867 27.4988 29.9693 27.4682C30.1858 27.4631 30.4124 27.3894 30.6399 27.4222C30.735 27.4443 30.7115 27.7949 30.6603 27.839C30.5524 27.9318 30.0958 27.816 30.0334 28.2086L30.0555 32.92C30.1369 33.1893 30.6225 33.1159 30.6919 33.215C30.7466 33.2929 30.7486 33.6451 30.5641 33.6L28.2294 33.6025L28.2224 33.2145C28.2667 33.1529 28.8838 33.1636 28.8838 32.8579V30.9338ZM28.8413 30.4264C28.8275 30.3849 28.8838 30.3346 28.8838 30.3207V28.0794C28.7453 28.0061 28.444 27.9799 28.2695 27.9719C27.6835 27.945 27.1883 27.9541 26.9289 28.544C26.6836 29.1015 26.792 29.8257 27.3145 30.1911C27.4026 30.2527 27.799 30.4264 27.8854 30.4264H28.8413Z" fill="#003285"/>
<path d="M12.8507 33.0323C11.4293 34.1533 9.01751 33.756 8.16954 32.1197C6.80968 29.4956 9.215 26.4873 12.0818 27.4646C14.3791 28.2477 14.6531 31.6109 12.8507 33.0323ZM10.7315 27.8154C8.24972 28.1083 8.61953 33.2461 10.9758 33.1779C13.7539 33.0974 13.223 27.5214 10.7315 27.8154Z" fill="#003285"/>
<path d="M6.95495 29.1945L6.62013 29.2665C6.40093 28.689 6.15777 28.0276 5.44848 27.9349C1.92812 27.475 2.39064 33.9259 5.53471 33.0459C6.00729 32.9136 6.28616 32.6678 6.50888 32.2394C6.58465 32.0936 6.64053 31.72 6.80166 31.7437C7.20827 31.8034 6.99554 32.3546 6.96075 32.6468C6.94358 32.7911 6.99143 33.1832 6.87543 33.2808C6.82952 33.3194 6.2178 33.508 6.11073 33.5346C3.46098 34.1939 1.55651 32.8454 1.77542 30.0654C1.96147 27.7028 4.54219 26.911 6.55433 27.5109C6.71187 27.5579 6.91097 27.6116 6.95123 27.7925C6.97728 27.9095 6.99339 29.1357 6.95495 29.1945Z" fill="#003285"/>
<path d="M24.5442 33.1811L24.5442 33.5287L24.444 33.598L22.062 33.5584L22.0618 33.2145C22.6664 33.0922 22.7284 33.0998 22.7677 32.4794C22.8399 31.339 22.7031 30.1046 22.7211 28.9694C22.6516 28.647 22.9176 28.1912 22.6105 27.9801C22.3227 27.7823 21.8666 28.0034 22.0919 27.4298L24.489 27.4635L24.4869 27.8051C24.407 27.9399 23.9345 27.8199 23.8727 28.2086C23.9694 29.6634 23.736 31.2998 23.8683 32.7331C23.9187 33.2785 24.4752 33.0711 24.5442 33.1811Z" fill="#003285"/>
<path d="M44.3736 12.4117L46.2108 11.2763L49.9424 13.7408L49.9845 13.9103L49.9823 21.7993C50.5076 21.8823 51.0381 21.991 51.5545 22.1163C52.0437 22.235 52.9697 22.4209 53.3929 22.6124C53.5807 22.6974 53.6341 22.9222 53.4661 23.0051C53.4046 23.0355 52.9261 22.993 52.8076 22.9835C51.1782 22.8531 49.5547 22.6058 47.9218 22.4758C41.3628 21.9538 35.3382 22.018 28.8024 22.7726C28.5622 22.8003 27.0301 23.0627 26.9544 22.9832L26.9209 22.7133C26.9321 22.6516 27.0261 22.6055 27.0814 22.5819C27.4749 22.4144 28.2184 22.2278 28.6532 22.1167C28.8559 22.0648 30.2929 21.8123 30.3122 21.7294C30.3056 21.4776 30.3147 21.2252 30.3121 20.9733C30.2813 17.986 30.3335 14.9654 30.3078 11.9651L30.3499 11.7955C31.1529 11.2335 31.9252 10.6158 32.7437 10.0762C32.8951 9.97633 33.4399 9.59767 33.5671 9.59094C33.9008 9.5733 35.7302 11.1336 36.2161 11.2699V7.14679L39.3878 4.97565L39.6331 4.92722L44.3736 8.20399V12.4117ZM43.4814 21.0807V8.71145L39.9691 6.32925L39.785 6.27988V21.0384L43.4814 21.0807ZM36.5984 21.0807V12.602L34.0289 10.9307L33.8795 10.8895L33.8816 16.1975C33.8818 17.0241 33.8774 17.8553 33.882 18.6927C33.8827 18.83 33.8061 18.9542 33.8755 19.1098L33.8795 21.2077L36.5984 21.0807ZM49.1747 21.5882V14.3358C49.1747 14.3076 49.095 14.2185 49.0622 14.194L46.5188 12.5812C46.5054 12.5768 46.4555 12.6804 46.4555 12.6865V21.1865C46.5241 21.259 46.6425 21.2723 46.7367 21.2872C47.3085 21.3776 47.894 21.4325 48.4686 21.5087C48.7002 21.5393 48.9192 21.6364 49.1747 21.5882Z" fill="#003285"/>
<path d="M25.9341 9.70518C26.5425 9.22676 27.1765 8.7504 27.8073 8.29233C31.4167 5.67142 35.1068 3.1469 38.7618 0.588683C39.0441 0.391153 39.5336 -0.125117 39.8847 0.0279599C44.5609 3.16698 49.1753 6.3979 53.8039 9.60135L53.8062 9.72699C52.888 9.65576 51.9576 9.7772 51.0457 9.64009C47.3592 7.18727 43.804 4.53015 40.1211 2.07589C40.0204 2.00879 39.7267 1.79202 39.6398 1.79653C38.4197 2.60788 37.1982 3.4265 35.9896 4.25719C33.3717 6.05641 30.7809 7.90109 28.1647 9.70518H25.9341Z" fill="#003285"/>
<path d="M41.9157 39.6055C41.9011 39.6508 41.9189 39.6878 41.936 39.7287C42.0527 40.0092 42.9945 41.2988 43.2289 41.5292C43.3798 41.6776 43.62 41.7053 43.5721 41.9501C43.5245 42.1933 42.9026 42.0378 42.7295 41.984C42.2098 41.8224 41.8915 41.2392 41.6244 40.8003C41.4901 40.5797 41.3012 40.105 41.1666 39.9451C41.0509 39.8076 40.5915 39.8741 40.5598 39.9684C40.5861 40.3935 40.5043 40.9027 40.5531 41.3168C40.6047 41.7541 41.0371 41.5636 41.1279 41.717C41.1617 41.7741 41.1664 41.9222 41.1302 41.9742C41.0661 42.0663 39.3605 41.9897 39.1142 42.0088C38.8885 41.4689 39.4848 41.7443 39.5982 41.5063L39.6184 37.6377C39.5819 37.4497 39.2826 37.4093 39.1171 37.3972C39.0577 37.2986 39.0469 37.1518 39.1306 37.0644C39.2059 36.9857 39.3313 37.0673 39.4264 37.068C40.6274 37.077 43.5683 36.7104 42.8624 38.8349C42.7351 39.2182 42.2882 39.4998 41.9157 39.6055ZM41.2976 37.4888C41.1099 37.4513 40.8199 37.5162 40.6178 37.4888L40.554 37.5522V39.4129C40.554 39.431 40.6207 39.484 40.6561 39.4744C41.1267 39.4011 41.7257 39.5051 41.9162 38.9501C42.0413 38.5857 41.9871 38.0435 41.702 37.7629C41.6474 37.7091 41.3559 37.5005 41.2976 37.4888Z" fill="#003285"/>
<path d="M14.6122 37.7182C16.0322 36.2188 18.7736 36.9525 18.9274 39.1174C19.0422 40.7333 18.131 42.017 16.4421 42.0977C14.0438 42.2123 13.103 39.3118 14.6122 37.7182ZM16.0711 37.4152C14.3905 37.6409 14.5082 41.3556 16.1126 41.6231C17.7021 41.8881 18.1067 40.3769 17.9456 39.1221C17.8062 38.0364 17.2791 37.2529 16.0711 37.4152Z" fill="#003285"/>
<path d="M65.4892 38.499C65.0707 38.66 65.1403 38.3562 65.0006 38.0857C64.7407 37.5823 64.3168 37.4609 63.7753 37.4449C62.0174 37.393 61.7247 39.3418 62.2022 40.6595C62.4483 41.3386 63.2465 41.6761 63.938 41.6274C64.0908 41.6166 64.635 41.5366 64.6787 41.3924C64.7099 41.2895 64.7014 40.4298 64.6678 40.3199C64.5455 39.9203 63.8851 40.2593 64.1318 39.7062L65.9216 39.7062C66.104 40.0783 65.7765 40.0056 65.6337 40.1232C65.386 40.3271 65.6822 41.5109 65.4492 41.6941C65.3756 41.7519 65.0103 41.8769 64.8997 41.9084C63.0952 42.4213 61.1139 41.9096 61.0336 39.751C60.9832 38.397 61.9439 37.0903 63.347 36.9798C63.7176 36.9506 65.2406 37.0405 65.4549 37.3375C65.5636 37.4882 65.4588 38.2654 65.4892 38.499Z" fill="#003285"/>
<path d="M45.8224 41.2736C45.8597 41.5168 45.9662 41.5184 46.189 41.543C46.6108 41.5896 47.2864 41.5938 47.5831 41.2499C47.6811 41.1362 47.7963 40.7275 47.8257 40.7094C47.8952 40.6664 48.1215 40.7241 48.1522 40.8154C48.1851 40.9134 48.1304 41.5471 48.1122 41.692C48.1053 41.7476 48.05 42.0046 48.0038 42.0156L44.3776 42.0139L44.3834 41.681C44.5755 41.6013 44.8571 41.6635 44.8848 41.3976C44.8021 40.2212 45.0044 38.8749 44.8901 37.7189C44.8443 37.2556 44.1293 37.5617 44.4202 37.0427L47.9621 37.0718L48.0318 37.1716C47.9902 37.3542 48.1066 38.2715 48.0017 38.3358C47.9356 38.3763 47.6807 38.407 47.627 38.3354C47.5598 38.2458 47.5207 37.8477 47.3956 37.6893C47.3574 37.641 47.0776 37.4888 47.0333 37.4888H45.8861L45.8224 37.5522V39.2015C45.9839 39.3018 46.3259 39.2805 46.523 39.2644C46.9151 39.2325 47.0409 39.21 47.1225 38.7952C47.1924 38.7484 47.4794 38.7317 47.4794 38.8209V40.2164C46.9975 40.5853 47.0956 39.6878 46.7784 39.6878H45.8649C45.8787 39.7293 45.8224 39.7795 45.8224 39.7935C45.8224 40.2138 45.7637 40.8906 45.8224 41.2736Z" fill="#003285"/>
<path d="M35.8379 41.4428C35.884 41.657 36.2637 41.6612 36.4353 41.694L36.4754 42.0138C35.7957 42.0157 35.1228 41.9369 34.4467 42.0477L34.3575 41.9861C34.248 41.5534 34.6292 41.7014 34.8623 41.52C34.8276 41.3494 34.894 41.1802 34.899 41.0245C34.9087 40.7233 34.8571 40.3625 34.8591 40.0453C34.8633 39.3865 34.9422 38.624 34.9051 37.9732C34.8773 37.4841 34.7931 37.4701 34.3269 37.3649C34.2781 37.2291 34.2877 37.0567 34.4556 37.0434C35.3955 37.1539 36.3466 36.9014 37.2733 37.1385C37.9022 37.2995 38.2771 37.6878 38.3039 38.3536C38.3621 39.7989 37.044 40.1603 35.8379 40.1107C35.8939 40.4907 35.7625 41.0922 35.8379 41.4428ZM36.6239 37.4888C36.4089 37.4453 36.0694 37.5206 35.8379 37.4888L35.8362 39.5751C36.2893 39.7592 37.1212 39.5409 37.2802 39.0301C37.4413 38.5125 37.2275 37.6111 36.6239 37.4888Z" fill="#003285"/>
<path d="M70.3802 38.2711L70.0025 38.3721C69.9172 38.029 69.807 37.5917 69.4053 37.5076C69.2552 37.4762 68.403 37.4622 68.2989 37.5106C68.2788 37.5199 68.2133 37.5872 68.2133 37.5945V39.2015L68.277 39.2649H69.1693C69.4224 39.2649 69.4096 38.8494 69.5613 38.7672C70.012 38.5232 69.8307 39.1742 69.8261 39.3689C69.8226 39.5146 69.8633 40.2093 69.7882 40.2612L69.5047 40.2418C69.444 40.114 69.3602 39.6878 69.1693 39.6878H68.277L68.2133 39.7512V41.3582C68.2133 41.495 68.4696 41.5311 68.5799 41.543C69.0053 41.5892 69.7249 41.613 69.9981 41.2316C70.1752 40.9843 70.1416 40.4518 70.5446 40.7714C70.5246 40.9665 70.5475 41.9566 70.396 42.0082L66.7661 41.9952C66.6976 41.9472 66.712 41.7601 66.7645 41.6921C66.8823 41.5484 67.2861 41.7287 67.3182 41.2248C67.3263 41.0983 67.2762 41.0066 67.2767 40.8947C67.2804 40.1303 67.2739 39.3599 67.2825 38.6051C67.2882 38.1036 67.5454 37.313 66.726 37.4044L66.7262 37.0659H70.3164L70.3802 37.1294V38.2711Z" fill="#003285"/>
<path d="M21.1798 41.4005C21.2412 41.6898 21.7021 41.5963 21.7561 41.6725C21.7965 41.7295 21.8035 41.9772 21.705 42.0078C21.3433 42.0648 20.9515 41.9702 20.6064 41.9672C20.3553 41.965 20.0501 42.046 19.7968 42.0155C19.5988 41.9917 19.6138 41.8406 19.6916 41.6952C19.9454 41.5739 20.2131 41.672 20.2477 41.3185C20.3599 40.1749 20.161 38.8455 20.2423 37.682C20.217 37.4364 19.9011 37.4268 19.7002 37.3973C19.5304 36.9037 19.8545 37.0516 20.1451 37.0591C21.2072 37.0865 22.2831 36.9423 23.342 37.0704C23.2779 37.389 23.4434 37.9049 23.3881 38.1859C23.3623 38.3168 23.1946 38.3974 23.0719 38.379C22.9035 38.3537 22.9195 38.0704 22.8669 37.9453C22.801 37.7887 22.5756 37.4888 22.3907 37.4888H21.2436L21.1798 37.5523V39.3918H22.0933C22.3673 39.3918 22.2279 38.6226 22.6247 38.8205C22.7945 38.9052 22.6651 39.1285 22.665 39.2457C22.6648 39.4884 22.7109 39.8089 22.7094 40.0472C22.7086 40.1572 22.6383 40.2831 22.667 40.4069L22.3752 40.4012C22.3366 40.27 22.2707 39.8147 22.0933 39.8147H21.2436L21.1798 39.8781C21.2432 40.3131 21.0946 40.9987 21.1798 41.4005Z" fill="#003285"/>
<path d="M52.231 37.1996C52.2408 37.4013 52.3485 38.2142 52.262 38.3372C52.2216 38.3947 51.9991 38.3971 51.9388 38.3573C51.878 38.3171 51.7722 37.7886 51.6437 37.6363C51.2106 37.123 49.7242 37.4007 50.1603 38.3939C50.4792 39.1203 52.3009 39.2367 52.4829 40.311C52.7092 41.6472 51.596 42.1691 50.4329 42.0977C50.2456 42.0862 49.3813 41.922 49.2639 41.8234C49.2179 41.7847 49.1922 41.6302 49.184 41.5646C49.1624 41.3901 49.142 41.1153 49.1348 40.9371C49.1227 40.6392 49.1143 40.4705 49.4709 40.4963C49.7202 41.2828 50.2076 41.8251 51.1021 41.6231C51.7972 41.466 51.9076 40.7288 51.4086 40.2808C50.7634 39.7014 49.3152 39.6037 49.2619 38.4413C49.1929 36.9351 51.1678 36.7185 52.231 37.1996Z" fill="#003285"/>
<path d="M9.67041 40.5381L9.95774 40.4963C10.0573 40.7407 10.1665 41.038 10.3278 41.2489C10.8114 41.8813 12.258 41.8501 12.1745 40.8485C12.0852 39.7773 9.87686 39.8793 9.75116 38.5245C9.62438 37.1581 11.0489 36.8436 12.1324 37.0424C12.3481 37.082 12.7257 37.1383 12.7646 37.3858C12.7836 37.5068 12.784 38.2152 12.7462 38.2925C12.6919 38.4037 12.4892 38.3954 12.3819 38.3585C12.1944 37.629 11.9992 37.3084 11.1787 37.4089C10.6568 37.4728 10.3672 37.9193 10.5914 38.4069C11.0022 39.3006 13.0863 39.1821 12.9788 40.7656C12.8899 42.0763 11.2892 42.258 10.2707 41.9824C10.1351 41.9457 9.71459 41.8226 9.67387 41.6884L9.67041 40.5381Z" fill="#003285"/>
<path d="M57.5915 38.5037L57.2157 38.4965C57.2005 38.1909 57.0203 37.4888 56.6355 37.4888H55.9557L55.892 37.5522V41.4005C55.892 41.4273 56.0236 41.5938 56.0627 41.6112C56.2476 41.6936 56.6299 41.6042 56.3746 42.0077L54.4109 42.05C54.3546 41.9471 54.3357 41.7594 54.425 41.674C54.5508 41.5537 54.9328 41.7155 54.9958 41.2697C55.1093 40.4681 54.9886 39.1695 54.973 38.3207C54.968 38.0504 55.0373 37.7561 54.9572 37.4888H54.2562C54.2406 37.4888 54.0075 37.6186 53.983 37.6397C53.7745 37.819 53.7075 38.2465 53.6344 38.498L53.3399 38.4853L53.3003 38.3982L53.3852 37.0659H57.4852C57.4928 37.0659 57.5915 37.1642 57.5915 37.1716V38.5037Z" fill="#003285"/>
<path d="M26.1511 37.0657L26.1453 37.3986C25.9008 37.4869 25.6506 37.4134 25.6174 37.7404C25.6514 38.7763 25.6393 39.8142 25.6429 40.8524C25.6437 41.0778 25.5238 41.4972 25.8136 41.6074C26.0755 41.7069 26.199 41.6051 26.151 42.0138L24.137 42.0182C23.9437 41.4169 24.6312 41.8306 24.7036 41.3131C24.6304 40.184 24.81 38.9162 24.7085 37.8038C24.6688 37.3675 24.5267 37.533 24.2383 37.426C24.0632 37.361 24.1061 37.2335 24.1157 37.0701L26.1511 37.0657Z" fill="#003285"/>
<path d="M58.4624 42.0136C58.4258 42.0126 58.359 42.0765 58.3208 41.9406C58.1905 41.4766 58.8032 41.8308 58.866 41.2736C58.9874 40.1958 58.7737 38.9049 58.868 37.804C58.8728 37.5233 58.6552 37.4287 58.4174 37.3647L58.4045 37.1352C58.419 37.0805 58.4564 37.0748 58.5048 37.0659C58.7799 37.0153 59.1653 37.0979 59.4396 37.0997C59.5925 37.1007 60.2581 36.9966 60.3344 37.1054C60.375 37.1634 60.3691 37.3282 60.3118 37.3845L59.882 37.5486C59.8249 37.6795 59.8082 37.8316 59.7988 37.9732C59.7417 38.8336 59.718 40.3854 59.8062 41.2259C59.8513 41.6558 59.979 41.5816 60.3475 41.681L60.3531 42.0136C59.7242 41.9999 59.0915 42.0323 58.4624 42.0136Z" fill="#003285"/>
<path d="M29.8259 42.0137C29.7202 41.9815 29.7626 41.7923 29.8275 41.719C29.9553 41.5748 30.265 41.7002 30.2764 41.4431C30.2871 41.2014 29.9354 40.665 29.8941 40.3906L28.2075 40.4028C28.1726 40.4296 27.9001 41.1315 27.8795 41.2178C27.7573 41.7299 28.041 41.5721 28.3989 41.7217L28.333 42.0172C28.175 42.1077 28.0279 42.014 27.8733 42.0119C27.591 42.0079 27.3019 42.0033 27.02 42.0119C26.872 42.0164 26.6575 42.1458 26.618 41.95C26.5337 41.5323 27.0988 41.709 27.2447 41.3475L28.9967 37.0018C29.1318 36.9775 29.4184 36.9315 29.5036 37.0485L31.1279 41.183C31.1752 41.2796 31.26 41.4581 31.3375 41.5241C31.5474 41.7029 31.9882 41.5525 31.6954 42.0137H29.8259ZM28.4026 39.9416H29.571C29.5787 39.9416 29.707 39.8989 29.6712 39.8435L29.0819 38.2498L28.955 38.3241L28.4026 39.9416Z" fill="#003285"/>
</svg>
